<svg width="200" height="156" viewBox="0 0 200 156" fill="none" xmlns="http://www.w3.org/2000/svg">
<path opacity="0.1" d="M29 139.145L70.9 136.977L117.5 143.473L74.3 147.803L29 139.145Z" fill="#2B2B2B"/>
<path opacity="0.1" d="M159.5 150.553L200 143.988L160.5 140.688L118.644 145.566L159.5 150.553Z" fill="#2B2B2B"/>
<path d="M190.994 112.229H185.4V144.228H190.994V112.229Z" fill="#1D3557"/>
<path d="M134.797 112.229H129.2V144.228H134.797V112.229Z" fill="#1D3557"/>
<path d="M185.4 112.229H191V116.357H185.4V112.229Z" fill="#1D3557"/>
<path d="M129.2 112.229H134.8V116.357H129.2V112.229Z" fill="#1D3557"/>
<path d="M194.59 107.693H123.2V113.461H194.59V107.693Z" fill="#00B0F2"/>
<path d="M8.6 81.8121L0 81.709L0.6 92.6388L2.9 84.3899L10 84.5995L10.3 87.4866L9.1 92.2298L1.3 93.8761L11 94.701L13.1 85.6272L8.6 81.8121Z" fill="#5EC0D9"/>
<path d="M52.1002 107.899L39.1002 76.863L32.4002 73.0479L12.2002 81.4033L13.9002 84.287L33.5002 76.6567L35.5002 77.9972L45.8002 107.693L52.1002 107.899Z" fill="#3AA0BA"/>
<path d="M60.2635 105.218H37.2002V112.308H60.2635V105.218Z" fill="#27788C"/>
<path d="M86.8 119.348H37V131.515H86.8V119.348Z" fill="#8F8F8F"/>
<path d="M35.6 109.449H88.2V133.368H84.7C84.5718 130.886 83.5255 128.55 81.7767 126.84C80.028 125.131 77.7099 124.178 75.3 124.178C72.8901 124.178 70.572 125.131 68.8233 126.84C67.0745 128.55 66.0282 130.886 65.9 133.368H57.9C57.7568 130.883 56.6989 128.549 54.9424 126.843C53.1859 125.136 50.8635 124.185 48.45 124.185C46.0365 124.185 43.7141 125.136 41.9576 126.843C40.2011 128.549 39.1432 130.883 39 133.368H35.6L25.5 115.839L35.6 109.449Z" fill="#318FA6"/>
<path d="M35.6 109.449H88.2V115.842H25.5L35.6 109.449Z" fill="#5EC0D9"/>
<path d="M86.7998 133.368H84.6998C84.5716 130.886 83.5253 128.55 81.7765 126.841C80.0278 125.131 77.7097 124.178 75.2998 124.178C72.8899 124.178 70.5718 125.131 68.8231 126.841C67.0743 128.55 66.028 130.886 65.8998 133.368H63.7998C63.9236 130.308 65.1893 127.417 67.3324 125.297C69.4755 123.178 72.3302 121.994 75.2998 121.994C78.2694 121.994 81.1241 123.178 83.2672 125.297C85.4103 127.417 86.676 130.308 86.7998 133.368Z" fill="#5EC0D9"/>
<path d="M60.0004 133.368H57.9004C57.7572 130.883 56.6993 128.549 54.9428 126.843C53.1863 125.136 50.8639 124.185 48.4504 124.185C46.0369 124.185 43.7145 125.136 41.958 126.843C40.2015 128.549 39.1435 130.883 39.0004 133.368H36.9004C37.0549 130.322 38.3311 127.452 40.4684 125.344C42.6057 123.236 45.4429 122.049 48.4004 122.025C54.6004 122.025 59.6004 127.078 60.0004 133.368Z" fill="#5EC0D9"/>
<path d="M48.3998 126.149C49.9029 126.149 51.3723 126.609 52.6221 127.47C53.872 128.331 54.8461 129.555 55.4213 130.987C55.9965 132.419 56.147 133.995 55.8538 135.515C55.5605 137.035 54.8367 138.431 53.7738 139.527C52.7109 140.623 51.3567 141.369 49.8825 141.672C48.4082 141.974 46.8801 141.819 45.4914 141.226C44.1027 140.633 42.9157 139.628 42.0806 138.34C41.2455 137.051 40.7998 135.536 40.7998 133.986C40.7998 131.908 41.6005 129.914 43.0258 128.445C44.4511 126.975 46.3842 126.149 48.3998 126.149Z" fill="#4F5253"/>
<path d="M48.4002 129.655C49.2318 129.655 50.045 129.908 50.7367 130.384C51.4284 130.86 51.9677 131.537 52.2863 132.329C52.6048 133.121 52.6883 133.993 52.5263 134.834C52.3642 135.675 51.9638 136.448 51.3757 137.054C50.7877 137.66 50.0384 138.073 49.2227 138.24C48.4071 138.407 47.5616 138.321 46.7934 137.993C46.0252 137.664 45.3688 137.108 44.9072 136.395C44.4456 135.682 44.1995 134.843 44.2002 133.986C44.2002 132.837 44.6427 131.736 45.4303 130.924C46.218 130.112 47.2863 129.655 48.4002 129.655Z" fill="#6F7173"/>
<path d="M75.3002 126.149C76.8033 126.149 78.2727 126.609 79.5225 127.47C80.7723 128.331 81.7465 129.555 82.3217 130.987C82.8969 132.419 83.0474 133.995 82.7542 135.515C82.4609 137.035 81.7371 138.431 80.6742 139.527C79.6113 140.623 78.2571 141.369 76.7829 141.672C75.3086 141.974 73.7805 141.819 72.3918 141.226C71.0031 140.633 69.8161 139.628 68.981 138.34C68.1459 137.051 67.7002 135.536 67.7002 133.986C67.7002 131.908 68.5009 129.914 69.9262 128.445C71.3515 126.975 73.2845 126.149 75.3002 126.149Z" fill="#4F5253"/>
<path d="M75.2996 129.655C76.1312 129.655 76.9444 129.908 77.6361 130.384C78.3279 130.86 78.8671 131.537 79.1857 132.329C79.5042 133.121 79.5878 133.993 79.4257 134.834C79.2636 135.675 78.8632 136.448 78.2751 137.054C77.6871 137.66 76.9378 138.073 76.1222 138.24C75.3065 138.407 74.4611 138.321 73.6929 137.993C72.9247 137.664 72.2682 137.108 71.8066 136.395C71.345 135.682 71.099 134.843 71.0996 133.986C71.0996 132.837 71.5421 131.736 72.3298 130.924C73.1174 130.112 74.1857 129.655 75.2996 129.655Z" fill="#6F7173"/>
<path d="M64.8233 130.793H58.5V133.364H64.8233V130.793Z" fill="#5EC0D9"/>
<path d="M89.4433 130.793H85V133.364H89.4433V130.793Z" fill="#72CBCC"/>
<path d="M38.5429 130.793H34.0996V133.364H38.5429V130.793Z" fill="#5EC0D9"/>
<path d="M36.9004 69.6445L38.5004 71.0881L40.0004 72.6348L39.6004 74.697L39.1004 76.8623L37.1004 77.4844L35.1004 78.2028L33.5004 76.6561L31.9004 75.2125L32.4004 73.0472L32.8004 70.985L34.9004 70.2666L36.9004 69.6445Z" fill="#27788C"/>
<path d="M36.4 71.8105L37.2 72.5323L38 73.2541L37.8 74.2852L37.5 75.4194L36.5 75.7322L35.5 76.0381L34.7 75.3163L34 74.5945L34.2 73.4603L34.4 72.4292L35.4 72.1233L36.4 71.8105Z" fill="#5EC0D9"/>
<path d="M12.1002 78.9248L13.7002 80.4715L15.3002 81.915L14.8002 84.0804L14.4002 86.2457L12.3002 86.8678L10.3002 87.4865L8.7002 86.0429L7.2002 84.5994L7.60019 82.4306L8.10019 80.2652L10.1002 79.6466L12.1002 78.9248Z" fill="#27788C"/>
<path d="M11.7002 81.0898L12.5002 81.8116L13.2002 82.6365L13.0002 83.6676L12.8002 84.6987L11.8002 85.0081L10.8002 85.3208L10.0002 84.5991L9.2002 83.8773L9.4002 82.8427L9.7002 81.8116L10.7002 81.5057L11.7002 81.0898Z" fill="#5EC0D9"/>
<path d="M62.5 51.9102L59.8 63.9742L51 72.223L53.6 54.2817L62.5 51.9102Z" fill="#B3889D"/>
<path d="M129.1 20.567L136.4 10.2559L145.4 46.1351L119.2 53.6622L99.5 63.9733L117 50.5689L129.1 20.567Z" fill="#C4C4C4"/>
<path d="M99.5 63.9733L118.7 51.9093L143.8 44.176L136.4 10.2559L102.5 31.3902L106.7 55.4151L110.9 53.6622L99.5 63.9733Z" fill="#ECECEB"/>
<path d="M109 63.9739L108.2 63.5614L110.8 60.0557L111.9 60.2619L111.5 62.8431L109 63.9739Z" fill="#8B6651"/>
<path d="M109.6 68.407L111.2 66.8603L118.1 65.4167L115.6 62.1172L108.2 63.5607L107.9 64.9012L109.6 68.407Z" fill="#DFBDA5"/>
<path d="M118.1 65.4172L120.5 60.6741L117.8 59.7461L115.6 62.1176L118.1 65.4172Z" fill="#C3987B"/>
<path d="M102.2 82.3306L110.1 80.368L111.2 66.8605L107.9 64.9014L102.2 82.3306Z" fill="#DDDDDC"/>
<path d="M92 80.1623L93 78.7188L110.1 80.3685L99.8 87.3801L92 80.1623Z" fill="#C4C4C4"/>
<path d="M74 113.982L77 114.498L77.4 111.099L74 113.982Z" fill="#8B6651"/>
<path d="M73.4 107.59L74.7 107.28L78.3 110.064L77 114.498L73 110.171L73.4 107.59Z" fill="#C3987B"/>
<path d="M83.1002 80.7842L79.7002 89.6483L84.6002 103.671L96.5002 95.2197L92.0002 82.5336L83.1002 80.7842Z" fill="#1D3557"/>
<path d="M85.7 84.5998L90.2 85.3216L89.8 82.95L87.2 79.5439L84.5 82.8435L85.7 84.5998Z" fill="#00B0F2"/>
<path d="M70.4002 97.8975L64.2002 104.806L73.0002 110.171L74.7002 107.281L70.4002 97.8975Z" fill="#C4C4C4"/>
<path d="M73.8002 87.999L71.2002 89.2364L64.2002 104.806L75.1002 98.2105L73.8002 87.999Z" fill="#A3A3A3"/>
<path d="M77.5002 82.5342L87.6002 95.4231L86.1002 137.286L71.2002 133.987L79.1002 107.281L71.2002 89.1367L77.5002 82.5342Z" fill="#DDDDDC"/>
<path d="M59.9998 92.1265L51.7998 86.2457L59.4998 83.8776L72.8998 77.6875L59.9998 92.1265Z" fill="#96637C"/>
<path d="M75.9004 133.368H102.8L101.9 127.49L77.5004 125.737L75.9004 133.368Z" fill="#8F8F8F"/>
<path d="M86.0996 138.73L86.4996 128.625H79.0996L82.3996 139.043L84.9996 141.308L86.0996 138.73Z" fill="#C3987B"/>
<path d="M79.0996 107.281L90.2996 106.562L96.1996 109.343L100.6 128.625H86.4996L79.0996 107.281Z" fill="#1D3557"/>
<path d="M87.2002 79.5436L92.6002 93.4636L101.8 134.296L110.3 126.153L98.8002 103.366L99.8002 87.3801L93.0002 78.7188L87.2002 79.5436Z" fill="#DDDDDC"/>
<path d="M62.5 51.9102L51 72.223L72.9 77.6879L62.5 51.9102Z" fill="#96637C"/>
<path d="M87.9002 46.3449L89.8002 47.7851L97.5002 69.8508L89.0002 73.6694L85.7002 84.5992L77.5002 82.5335L64.2002 68.3042V49.3317L81.5002 41.2891L87.9002 46.3449Z" fill="#DFBDA5"/>
<path d="M85.7002 84.5997L86.6002 81.7092L79.1002 78.2034L82.2002 76.6567L73.9002 55.4158L70.8002 52.6318L64.2002 68.3047L77.5002 82.5341L85.7002 84.5997Z" fill="#C3987B"/>
<path d="M79.0996 78.2034L86.5996 81.7092L88.9996 73.6699L79.0996 78.2034Z" fill="#8B6651"/>
<path d="M70.7998 52.632L87.8998 46.3457L81.5998 40.3652L63.1998 48.8169L58.7998 68.0987L69.3998 73.8729L64.1998 68.3049L66.0998 63.6649L70.8998 69.336L72.8998 66.2427L67.7998 59.6436L70.7998 52.632Z" fill="#B3889D"/>
<path d="M69.4004 73.8724L70.9004 71.707L72.9004 77.6875L69.4004 73.8724Z" fill="#8B6651"/>
<path d="M69.4002 73.8721L71.8002 70.3663L66.1002 63.6641L64.2002 68.3041L69.4002 73.8721Z" fill="#DFBDA5"/>
<path d="M66.6996 66.1387L68.6996 68.2009L65.5996 67.9981L66.6996 66.1387Z" fill="#8B6651"/>
<path d="M73.2002 71.8102L72.1002 72.9444L69.7002 70.4698L70.9002 69.2324L73.2002 71.8102Z" fill="white"/>
<path d="M89.9004 63.355L86.9004 64.3896L83.4004 55.4155L86.4004 54.2812L89.9004 63.355Z" fill="#E8CAB6"/>
<path d="M89.9004 63.3555L89.0004 65.1084L86.9004 64.39L89.9004 63.3555Z" fill="#8B6651"/>
<path d="M83.3996 55.416L75.0996 58.5093L77.5996 64.8988L85.7996 61.7024L83.3996 55.416ZM76.8996 59.3342L82.5996 57.272L83.9996 60.8809L78.3996 63.0462L76.8996 59.3342Z" fill="#1D3557"/>
<path d="M94.0004 51.3945L86.4004 54.2851L88.9004 60.678L96.4004 57.7909L94.0004 51.3945ZM88.2004 55.1065L93.2004 53.254L94.6004 56.9625L89.7004 58.8185L88.2004 55.1065Z" fill="#1D3557"/>
<path d="M90.7998 54.1783L90.2998 52.8379L82.2998 55.8281L82.7998 57.172L90.7998 54.1783Z" fill="#1D3557"/>
<path d="M82.0002 54.384L81.0002 54.6933L79.0002 53.8684L77.2002 56.24L78.7002 52.9404L82.0002 54.384Z" fill="#543042"/>
<path d="M86.2002 53.1471L87.0002 52.9409L87.7002 50.6724L89.8002 51.0849L87.4002 49.9541L86.2002 53.1471Z" fill="#543042"/>
<path d="M92.3004 59.334L89.2004 61.6024L88.9004 60.6744L92.3004 59.334Z" fill="#C3987B"/>
<path d="M78.7002 64.3894L86.4002 63.1486L85.8002 61.7051L78.7002 64.3894Z" fill="#C3987B"/>
<path d="M76.9004 59.3337H83.4004L82.6004 57.2715L76.9004 59.3337Z" fill="#C3987B"/>
<path d="M90.8002 54.1777L89.0002 57.0648L88.2002 55.1092L90.8002 54.1777Z" fill="#C3987B"/>
<path d="M81.6002 40.3652L80.2002 49.2294L87.9002 46.3457L81.6002 40.3652Z" fill="#96637C"/>
<path d="M66.0998 63.6644L70.8998 69.2324L72.8998 66.2422L67.7998 59.6431L70.7998 52.6315L63.1998 48.8164L58.7998 68.0982L64.1998 68.3044L66.0998 63.6644Z" fill="#734D60"/>
<path d="M66.1002 63.6643L65.1002 66.139L64.2002 62.9426L75.1002 58.5088L76.3002 61.499L66.1002 63.6643Z" fill="#1D3557"/>
<path d="M58.7998 68.0986L69.3998 73.8729L64.1998 68.3049L58.7998 68.0986Z" fill="#543042"/>
<path d="M72.8998 77.6874L59.9998 92.1264L58.7998 74.1816L72.8998 77.6874Z" fill="#543042"/>
<path d="M51 72.2231L58.8 68.0986L69.4 73.8729L72.9 77.688L51 72.2231Z" fill="#734D60"/>
<path d="M79.5002 89.4424L78.7002 93.3606L85.3002 96.6636L87.6002 95.4228L83.2002 89.8583L79.5002 89.4424Z" fill="#ECECEB"/>
<path d="M85.7 84.5998L82.1 88.5146L77.5 82.5342L85.7 84.5998Z" fill="#00B0F2"/>
<path d="M87.2002 79.5439L92.4002 93.0515L96.9002 83.7749L87.2002 79.5439Z" fill="#ECECEB"/>
<path d="M102.8 138.421L100.6 128.625H93.5996L99.4996 138.627L101.5 139.967L102.8 138.421Z" fill="#C3987B"/>
<path d="M96.2002 109.342L110.3 126.153L98.8002 103.365L96.2002 109.342Z" fill="#ECECEB"/>
<path d="M100.6 128.625H93.5996L94.4996 130.175L100.6 128.625Z" fill="#8B6651"/>
<path d="M86.0996 137.496V137.286L81.5996 136.255L82.0996 138.008L86.0996 137.496Z" fill="#8B6651"/>
<path d="M77.5002 82.5342L87.6002 95.4231L86.1002 137.286L71.2002 133.987L79.1002 107.281L71.2002 89.1367L77.5002 82.5342Z" fill="#DDDDDC"/>
<path d="M87.1002 108.311L71.2002 133.986L79.1002 107.28L87.1002 108.311Z" fill="#C4C4C4"/>
<path d="M96.2002 109.343L110.3 126.153L101.9 134.296L96.2002 109.343Z" fill="#C4C4C4"/>
<path d="M87.0996 108.312L100.6 128.525L96.1996 109.343L87.0996 108.312Z" fill="#00B0F2"/>
<path d="M92.4004 93.051L93.6004 98.4128L96.2004 109.343L98.8004 103.366L99.8004 87.3799L92.4004 93.051Z" fill="#8F8F8F"/>
<path d="M87.6004 95.4229L76.4004 101.201L79.1004 107.281L87.1004 108.312L87.6004 95.4229Z" fill="#8F8F8F"/>
<path d="M93.5996 98.4126L92.3996 93.0508L87.5996 95.4223L87.0996 108.208L87.1996 108.311L96.1996 109.342L93.5996 98.4126Z" fill="#1D3557"/>
<path d="M99.5 138.626L102.8 138.42L108.813 143.001L109.3 143.988H102L99.5 138.626Z" fill="#1D3557"/>
<path d="M101 143.988L101.5 142.854L99.5 138.626L99.6 143.988H101Z" fill="#1D3557"/>
<path d="M168.11 143.002L160.22 145.566L160.39 147.391L170.586 147.185L170.53 145.648L168.11 143.002Z" fill="#27788C"/>
<path d="M133.376 142.304L128.703 143.902L128.723 145.462L141.663 145.565L141.72 143.84L133.376 142.304Z" fill="#27788C"/>
<path d="M128.703 143.902L135.893 138.692L136.063 138.365L141.376 137.135L141.813 139.163L141.736 143.84L128.703 143.902Z" fill="#3AA0BA"/>
<path d="M160.22 145.565L162.963 140.004L164.343 135.615L168.07 139.698L168.336 139.839L170.53 145.648L160.22 145.565Z" fill="#3AA0BA"/>
<path d="M139.013 111.673L137.293 126.937L140.886 132.085L146.543 130.69L151.29 122.445L155.433 114.464" fill="#4F5253"/>
<path d="M137.294 126.937L135.894 138.691L141.814 139.162L146.544 130.69L137.294 126.937Z" fill="#474747"/>
<path d="M153.96 116.124L150.646 121.152L151.29 122.445L157.856 132.292L162 134.732L167.03 130.034L165.536 118.32" fill="#4F5253"/>
<path d="M168.336 139.839L167.03 130.033L157.856 132.291L162.963 140.004L168.336 139.839Z" fill="#474747"/>
<path d="M139.014 111.673L151.29 122.445L165.537 118.32" fill="#474747"/>
<path d="M82.4004 139.042L86.1004 138.729L91.4671 143.002L92.0004 144.091H84.4004L82.4004 139.042Z" fill="#1D3557"/>
<path d="M83.5998 144.091L83.9998 143.063L82.3998 139.042L82.2998 144.091H83.5998Z" fill="#1D3557"/>
<path d="M77.4998 82.5342L76.2998 89.8585L84.3998 91.4052L77.4998 82.5342Z" fill="#ECECEB"/>
<path d="M83.7998 67.9986L85.3998 67.7889L88.8998 66.2423L91.3998 66.0361L92.6998 65.5205L89.7998 71.1916L83.7998 67.9986Z" fill="#C3987B"/>
<path d="M85.2998 68.2015C85.3998 68.2015 91.6998 66.5518 91.6998 66.5518L90.0998 69.4389L89.0998 69.7482L85.2998 68.2015Z" fill="#1D3557"/>
<path d="M85.2998 68.2015C85.3998 68.2015 91.6998 66.5518 91.6998 66.5518L91.0998 67.686L86.6998 68.8202L85.2998 68.2015Z" fill="white"/>
<path d="M140.6 41.9111L139.7 39.0205L131.9 40.2578L126.3 42.0107L122.4 42.3201L118 44.073L114.2 44.3823L110.6 46.2383L108 46.4445L108.8 51.0845L140.6 41.9111Z" fill="#3AA0BA"/>
<path d="M139.7 39.0205L131.9 40.2578L126.3 42.0107L122.4 42.3201L118 44.073L114.2 44.3823L110.6 46.2383L108 46.4445L108.2 47.5822L111.2 46.7538L114.8 46.4445L121.7 43.9698L129.1 42.4232L132.7 41.289H134.7L139.7 39.0205Z" fill="#73CFE5"/>
<path d="M113.1 47.9916L112.9 48.3044L113.3 48.5071L113.6 48.1978L113.1 47.9916ZM135.7 41.499L135.5 41.9115L135.9 42.1143L136.1 41.8049L135.7 41.499ZM133.2 42.6332L133 42.836L133.2 42.9391L133.4 42.7329L133.2 42.6332ZM130.2 43.0457L130 43.3516L130.3 43.5578L130.6 43.2485L130.2 43.0457ZM127.6 43.6609L127.5 43.9703L127.7 44.0734L128 43.8671L127.6 43.6609ZM125.6 45.0014L125.4 45.3107L125.8 45.5169L126.1 45.2076L125.6 45.0014ZM122.8 45.1045L122.6 45.4138L122.9 45.6235L123.2 45.3107L122.8 45.1045ZM123.3 44.1799L123.2 44.3827L123.4 44.4858L123.5 44.2796L123.3 44.1799ZM121.6 46.0359L121.5 46.2421L121.7 46.4449L121.9 46.2421L121.6 46.0359ZM118.5 45.5169L118.4 45.7231L118.5 45.8263L118.7 45.7231L118.5 45.5169ZM116.3 47.5791L116.1 47.7819L116.3 47.885L116.5 47.6788L116.3 47.5791ZM114.5 47.067L114.3 47.3798L114.6 47.4795L114.8 47.2767L114.5 47.067Z" fill="#73CFE5"/>
<path d="M137.3 111.82L139 112.333L139.7 109.961L137.3 111.82Z" fill="#8B6651"/>
<path d="M138.4 106.25V107.59L139 112.333C139 112.333 144.4 108.006 144.4 107.796C144.5 107.59 142.2 105.016 142.2 105.016L138.4 106.25Z" fill="#C3987B"/>
<path d="M141.3 93.876L136.5 96.2475L138.4 107.59L140.9 105.84L143.1 98.4129C143.1 98.4129 141.1 94.0822 141.3 93.876Z" fill="#72CBCC"/>
<path d="M148 87.7929L146.6 85.4248L136.5 96.248L146.1 99.3414L148 87.7929Z" fill="#50A9AA"/>
<path d="M160.3 85.8336L161.5 84.287L172.3 70.6763L170.9 55.6221L168.6 59.8496L160.7 80.1625L158.1 84.3901L157 86.9678L160.3 85.8336Z" fill="#C3987B"/>
<path d="M151.5 85.0086L151.2 81.709L150 76.5535L150.9 76.2441L161 79.2344L161.6 79.9561L157 86.9677L151.5 85.0086Z" fill="#8B6651"/>
<path d="M153.6 80.2655L155.9 81.4032L157 78.6157L155 77.9971L153.6 80.2655Z" fill="#C3987B"/>
<path d="M147.1 64.3893L146.9 49.2285L147.9 49.3316L150.5 50.8783L150.6 51.9094L147.1 64.3893Z" fill="#474747"/>
<path d="M150.5 50.8789L143.9 74.8007L161.6 79.8531L170.9 55.622L150.5 50.8789Z" fill="#DFBDA5"/>
<path d="M168.1 75.9379L170.2 73.2535L166.6 71.9131L168.1 75.9379Z" fill="#8B6651"/>
<path d="M157.6 58.406L146.9 49.2291L155.5 43.1455H156.5L158.1 57.0655L168.6 47.3765H169.8L175 54.7971L174.6 55.1098L169 56.4468L168.5 56.1375L157.6 58.406Z" fill="#2B2B2B"/>
<path d="M163.8 39.0205L169.8 47.3759L157.6 58.4054L155.5 43.145L163.8 39.0205Z" fill="#6F7173"/>
<path d="M177.3 66.036L175 54.7969L173.7 55.828C173.7 55.828 169 64.9018 169 65.0049C168.865 65.4074 168.765 65.8214 168.7 66.2422L170.2 73.2538L177.3 66.036Z" fill="#2B2B2B"/>
<path d="M168.7 66.2422L168.5 56.1373L175 54.7969L168.7 66.2422Z" fill="#474747"/>
<path d="M166.6 71.9133L170.2 73.2537L173.3 67.6857L168.7 66.2422L166.6 71.9133Z" fill="#DFBDA5"/>
<path d="M168.4 70.367L169.5 67.583L171.7 68.4079L168.4 70.367Z" fill="#C3987B"/>
<path d="M152.9 66.9637L151.1 60.9867L148.9 58.1992L153.1 58.4054L154.3 58.9244L155.3 60.0552L155.9 61.705L158.2 60.6739L159.2 61.9112L164.7 60.8801L166.1 61.705L161.4 63.0454L156.2 67.4792L152.9 66.9637Z" fill="#C3987B"/>
<path d="M153.9 68.8199L152.9 66.9639L156.2 67.4794L153.9 68.8199Z" fill="#C3987B"/>
<path d="M155.3 60.0557L152.9 66.9641L156.2 67.4797L158.2 60.6743L155.3 60.0557Z" fill="#E8CAB6"/>
<path d="M154.3 58.9249L153.4 57.0654L148.9 58.1997L154.3 58.9249Z" fill="#2B2B2B"/>
<path d="M159.2 61.9114L164.8 59.7461L166.1 61.7052L159.2 61.9114Z" fill="#2B2B2B"/>
<path d="M146.6 85.4248L150 85.9404L152.9 89.6489L155.1 97.3857L155.6 98.4134L153.4 114.396L151.9 115.427L139 112.333L146.6 85.4248Z" fill="#369496"/>
<path d="M162.5 86.6582L166.1 87.2769L165.8 104.6L165.6 118.729L151.9 115.426L155 97.7942L155.2 96.9693L156.7 91.8138L162.5 86.6582Z" fill="#72CBCC"/>
<path d="M155.8 85.9394L151.6 92.1261L150 85.9394L151.3 83.5645L155.8 85.9394Z" fill="#ECECEB"/>
<path d="M162.5 86.658L161.3 84.4961L155.7 85.9397L156.3 93.7727L162.5 86.658Z" fill="#ECECEB"/>
<path d="M155 97.7944L153.9 93.5703L155.2 91.1953L156.5 91.2984L157.3 93.8762L155 97.7944Z" fill="#474747"/>
<path d="M155.9 81.4028L154.4 75.4189L150.5 76.4501L149.6 79.9558L151.3 83.5647L153.5 85.1114L155.9 81.4028Z" fill="#E8CAB6"/>
<path d="M154.4 75.4192L150.9 74.4912L148.5 76.141L149.6 79.9561L154.4 75.4192Z" fill="#C3987B"/>
<path d="M151.6 105.734L151.3 83.5652L155.9 81.4033L159.5 99.135L157.6 101.713L151.6 105.734Z" fill="#50A9AA"/>
<path d="M166.1 87.2773L165.9 101.507L151.6 105.734L166.1 87.2773Z" fill="#1C7678"/>
<path d="M151.4 70.2666L157.7 73.5627L157.4 74.2845L151.3 70.9849L151.4 70.2666Z" fill="#C3987B"/>
<path d="M132.6 30.5654L132.1 32.7308L125.2 38.0925L130.5 32.8339L132.6 30.5654Z" fill="white"/>
<path d="M129.7 30.9778L129.3 32.8338L133.1 32.7307L134.3 30.7716L132.6 30.0498L129.7 30.9778Z" fill="#A688BA"/>
<path d="M116.1 37.2676L115.6 39.4329L108.7 44.7981L114.1 39.536L116.1 37.2676Z" fill="white"/>
<path d="M113.3 37.6809L112.8 39.5369L116.7 39.4338L117.9 37.4747L116.1 36.7529L113.3 37.6809Z" fill="#A688BA"/>
<path d="M128.8 28.2972L124 24.8945L114.1 29.0224L113.4 34.3808L111.7 35.1025L108.9 34.2811L111.2 40.2581L136.7 29.8439L135.1 25.9256L128.8 28.2972Z" fill="#1D3557"/>
<path d="M123.1 35.3092L127.2 33.6594L127.8 30.9785L125.5 32.1127L123.1 35.3092Z" fill="#1D3557"/>
<path d="M123.9 26.0293L120 27.576L121.1 31.3911L127.3 28.8167L123.9 26.0293ZM119.1 27.9884L115 29.6382L114.3 34.1751L120.2 31.8035L119.1 27.9884Z" fill="white"/>
<path d="M120.8 33.8656L127.8 30.9785L126 32.4255L123.3 37.2683L119.2 39.1243L120.8 33.8656Z" fill="#00B0F2"/>
<path d="M120.8 33.8656L127.8 30.9785L126 32.4255L120.8 33.8656Z" fill="#A688BA"/>
<path d="M81.8836 59.9043C82.3549 59.9043 82.7369 59.5104 82.7369 59.0244C82.7369 58.5385 82.3549 58.1445 81.8836 58.1445C81.4123 58.1445 81.0303 58.5385 81.0303 59.0244C81.0303 59.5104 81.4123 59.9043 81.8836 59.9043Z" fill="#2B2B2B"/>
<path d="M89.7996 56.7627C90.2709 56.7627 90.653 56.3688 90.653 55.8828C90.653 55.3969 90.2709 55.0029 89.7996 55.0029C89.3283 55.0029 88.9463 55.3969 88.9463 55.8828C88.9463 56.3688 89.3283 56.7627 89.7996 56.7627Z" fill="#2B2B2B"/>
<path d="M151.133 63.1623C151.757 63.1623 152.263 62.6407 152.263 61.9972C152.263 61.3537 151.757 60.832 151.133 60.832C150.509 60.832 150.003 61.3537 150.003 61.9972C150.003 62.6407 150.509 63.1623 151.133 63.1623Z" fill="#2B2B2B"/>
<path d="M160.42 65.1496C161.044 65.1496 161.55 64.628 161.55 63.9845C161.55 63.341 161.044 62.8193 160.42 62.8193C159.796 62.8193 159.29 63.341 159.29 63.9845C159.29 64.628 159.796 65.1496 160.42 65.1496Z" fill="#2B2B2B"/>
<path fill-rule="evenodd" clip-rule="evenodd" d="M191.306 98.7121L193.11 97.9697V100.468L191.276 101.857L191.306 98.7121Z" fill="#CECECD"/>
<path fill-rule="evenodd" clip-rule="evenodd" d="M170.313 104.308L187.62 104.878L187.08 108.607L170.313 107.734V104.308Z" fill="#27788C"/>
<path fill-rule="evenodd" clip-rule="evenodd" d="M187.08 105.435L189.71 104.974L193.207 104.314V107.693L187.08 108.607V105.435Z" fill="#CECECD"/>
<path fill-rule="evenodd" clip-rule="evenodd" d="M170.313 104.308L177.073 103.208L193.207 104.315L187.08 105.435L170.313 104.308Z" fill="#73CFE5"/>
<path d="M183.193 105.431L183.463 103.991L183.193 102.65L168.233 102.228V104.517L183.193 105.431Z" fill="#1C7678"/>
<path fill-rule="evenodd" clip-rule="evenodd" d="M183.193 102.65L189.323 101.578V103.802L183.193 105.431V102.65Z" fill="#CECECD"/>
<path fill-rule="evenodd" clip-rule="evenodd" d="M189.323 101.579L175.713 100.926L168.233 102.228L183.193 103.022L189.323 101.579Z" fill="#72CBCC"/>
<path fill-rule="evenodd" clip-rule="evenodd" d="M191.667 98.7119L174.903 99.1622V101.761L191.277 101.857L191.667 98.7119Z" fill="#27788C"/>
<path fill-rule="evenodd" clip-rule="evenodd" d="M193.11 97.9692L177.517 97.8076L174.903 99.1618L191.307 99.0828L193.11 97.9692Z" fill="#73CFE5"/>
<path d="M189.323 96.1036L173.1 95.7324L173.46 98.6127H189.323V96.1036Z" fill="#1C7678"/>
<path fill-rule="evenodd" clip-rule="evenodd" d="M173.46 95.732L171.78 94.584V96.8799L173.46 98.6122V95.732Z" fill="#CECECD"/>
<path fill-rule="evenodd" clip-rule="evenodd" d="M171.78 94.584H186.8L189.324 96.1032H173.46L171.78 94.584Z" fill="#72CBCC"/>
</svg>
