<svg width="41" height="40" viewBox="0 0 41 40" fill="none" xmlns="http://www.w3.org/2000/svg">
<g clip-path="url(#clip0_145_4913)">
<path d="M13.8202 7.50049H27.1802L30.0635 5.19382C31.0452 4.41049 31.4118 3.13882 30.9968 1.95215C30.5818 0.765488 29.5035 0.000488281 28.2502 0.000488281H12.7502C11.4968 0.000488281 10.4185 0.767155 10.0035 1.95215C9.5885 3.13715 9.95517 4.41049 10.9352 5.19215L13.8202 7.50049Z" fill="#1D3557"/>
<path d="M27.4086 10.0005H13.5919C9.04024 14.4688 5.50024 22.3088 5.50024 28.7505C5.50024 34.3488 8.46358 40.0005 15.0836 40.0005H26.3336C31.9886 40.0005 35.5002 35.6888 35.5002 28.7505C35.5002 22.3088 31.9602 14.4688 27.4086 10.0005ZM19.8669 23.7505H21.1336C23.0819 23.7505 24.6669 25.3355 24.6669 27.2838C24.6669 29.0355 23.4036 30.4772 21.7502 30.7705V32.0822C21.7502 32.7722 21.1902 33.3322 20.5002 33.3322C19.8102 33.3322 19.2502 32.7722 19.2502 32.0822V30.8338H17.5836C16.8936 30.8338 16.3336 30.2738 16.3336 29.5838C16.3336 28.8938 16.8936 28.3338 17.5836 28.3338H21.1336C21.7036 28.3338 22.1669 27.8705 22.1669 27.3005C22.1669 26.7138 21.7036 26.2505 21.1336 26.2505H19.8669C17.9186 26.2505 16.3336 24.6655 16.3336 22.7172C16.3336 20.9655 17.5969 19.5238 19.2502 19.2305V17.9172C19.2502 17.2272 19.8102 16.6672 20.5002 16.6672C21.1902 16.6672 21.7502 17.2272 21.7502 17.9172V19.1672H23.4169C24.1069 19.1672 24.6669 19.7272 24.6669 20.4172C24.6669 21.1072 24.1069 21.6672 23.4169 21.6672H19.8669C19.2969 21.6672 18.8336 22.1305 18.8336 22.7005C18.8336 23.2872 19.2969 23.7505 19.8669 23.7505Z" fill="#1D3557"/>
</g>
<defs>
<clipPath id="clip0_145_4913">
<rect width="40" height="40" fill="white" transform="translate(0.500244 0.000488281)"/>
</clipPath>
</defs>
</svg>
